<svg xmlns="http://www.w3.org/2000/svg" xmlns:xlink="http://www.w3.org/1999/xlink" width="500" zoomAndPan="magnify" viewBox="90 140 190 120" height="500" preserveAspectRatio="xMidYMid meet" version="1.0"><defs><g/><clipPath id="4cc128f150"><path d="M 0 175.144531 L 375 175.144531 L 375 199.855469 L 0 199.855469 Z M 0 175.144531 " clip-rule="nonzero"/></clipPath><clipPath id="3eca9844a3"><path d="M 0 0.144531 L 375 0.144531 L 375 24.855469 L 0 24.855469 Z M 0 0.144531 " clip-rule="nonzero"/></clipPath><clipPath id="987e03df4b"><rect x="0" width="375" y="0" height="25"/></clipPath></defs><g fill="#c0c0c0" fill-opacity="1"><g transform="translate(104.449216, 225.107827)"><g><path d="M -3.515625 22.984375 C 1.535156 18.222656 5.128906 12.875 7.265625 6.9375 C 8.066406 4.65625 8.46875 2.34375 8.46875 0 L 8.46875 -77 L 15.953125 -77 L 15.953125 0 C 15.953125 0.21875 15.953125 0.4375 15.953125 0.65625 C 15.953125 8.726562 12.210938 16.207031 4.734375 23.09375 C 2.898438 24.78125 1.359375 26.175781 0.109375 27.28125 Z M -3.515625 22.984375 "/></g></g></g><g fill="#c0c0c0" fill-opacity="1"><g transform="translate(129.307453, 225.107827)"><g><path d="M 51.375 -56.3125 C 51.375 -45.757812 47.742188 -38.6875 40.484375 -35.09375 L 57.09375 0 L 49.0625 0 L 33.4375 -32.78125 C 30.800781 -32.34375 27.90625 -32.125 24.75 -32.125 L 16.28125 -32.125 L 16.28125 0 L 8.796875 0 L 8.796875 -77 L 24.75 -77 C 33.695312 -77 40.222656 -75.601562 44.328125 -72.8125 C 49.023438 -69.664062 51.375 -64.164062 51.375 -56.3125 Z M 16.28125 -70.953125 L 16.28125 -38.171875 L 24.203125 -38.171875 C 30.722656 -38.171875 35.632812 -39.488281 38.9375 -42.125 C 42.238281 -44.769531 43.890625 -49.351562 43.890625 -55.875 C 43.890625 -64.238281 40.078125 -69.082031 32.453125 -70.40625 C 30.023438 -70.769531 27.273438 -70.953125 24.203125 -70.953125 Z M 16.28125 -70.953125 "/></g></g></g><g fill="#c0c0c0" fill-opacity="1"><g transform="translate(191.343056, 225.107827)"><g><path d="M 39.59375 -77.4375 C 61.226562 -77.4375 72.046875 -64.382812 72.046875 -38.28125 C 72.046875 -26.320312 68.960938 -16.878906 62.796875 -9.953125 C 56.640625 -3.023438 48.90625 0.4375 39.59375 0.4375 C 29.695312 0.4375 22.035156 -2.273438 16.609375 -7.703125 C 10.304688 -14.148438 7.15625 -23.863281 7.15625 -36.84375 C 7.15625 -49.820312 10.25 -59.832031 16.4375 -66.875 C 22.632812 -73.914062 30.351562 -77.4375 39.59375 -77.4375 Z M 22 -12.984375 C 26.03125 -8.429688 31.894531 -6.15625 39.59375 -6.15625 C 46.851562 -6.15625 52.828125 -9.035156 57.515625 -14.796875 C 62.210938 -20.554688 64.5625 -28.820312 64.5625 -39.59375 C 64.5625 -50.375 62.109375 -58.476562 57.203125 -63.90625 C 53.097656 -68.53125 47.226562 -70.84375 39.59375 -70.84375 C 32.40625 -70.84375 26.445312 -67.941406 21.71875 -62.140625 C 16.988281 -56.347656 14.625 -48.046875 14.625 -37.234375 C 14.625 -26.421875 17.082031 -18.335938 22 -12.984375 Z M 22 -12.984375 "/></g></g></g><g clip-path="url(#4cc128f150)"><g transform="matrix(1, 0, 0, 1, 0, 175)"><g clip-path="url(#987e03df4b)"><g clip-path="url(#3eca9844a3)"><path fill="#0a0a0f" d="M 0 0.144531 L 375.011719 0.144531 L 375.011719 24.855469 L 0 24.855469 Z M 0 0.144531 " fill-opacity="1" fill-rule="nonzero"/></g></g></g></g><g fill="#c0c0c0" fill-opacity="1"><g transform="translate(114.755475, 191.27555)"><g><path d="M 7.046875 -7.78125 L 3.921875 0.015625 L 3.109375 0.015625 L -0.015625 -7.78125 L 1.203125 -7.78125 L 3.515625 -1.9375 L 5.859375 -7.78125 Z M 7.046875 -7.78125 "/></g></g></g><g fill="#c0c0c0" fill-opacity="1"><g transform="translate(130.513564, 191.27555)"><g><path d="M 3.484375 -6.75 L 3.484375 -1.03125 L 4.921875 -1.03125 L 4.921875 0 L 0.953125 0 L 0.953125 -1.03125 L 2.375 -1.03125 L 2.375 -6.75 L 0.953125 -6.75 L 0.953125 -7.765625 L 4.921875 -7.765625 L 4.921875 -6.75 Z M 3.484375 -6.75 "/></g></g></g><g fill="#c0c0c0" fill-opacity="1"><g transform="translate(145.16144, 191.27555)"><g><path d="M 4.796875 -5.703125 C 4.742188 -5.929688 4.632812 -6.117188 4.46875 -6.265625 C 4.3125 -6.410156 4.125 -6.515625 3.90625 -6.578125 C 3.695312 -6.648438 3.476562 -6.6875 3.25 -6.6875 C 2.988281 -6.6875 2.722656 -6.640625 2.453125 -6.546875 C 2.191406 -6.453125 1.984375 -6.304688 1.828125 -6.109375 C 1.765625 -6.023438 1.71875 -5.929688 1.6875 -5.828125 C 1.65625 -5.722656 1.640625 -5.613281 1.640625 -5.5 C 1.640625 -5.207031 1.722656 -4.988281 1.890625 -4.84375 C 2.066406 -4.695312 2.285156 -4.597656 2.546875 -4.546875 C 2.816406 -4.492188 3.097656 -4.453125 3.390625 -4.421875 C 3.648438 -4.390625 3.921875 -4.34375 4.203125 -4.28125 C 4.484375 -4.21875 4.75 -4.128906 5 -4.015625 C 5.25 -3.898438 5.46875 -3.742188 5.65625 -3.546875 C 5.84375 -3.347656 5.972656 -3.09375 6.046875 -2.78125 C 6.085938 -2.601562 6.109375 -2.4375 6.109375 -2.28125 C 6.109375 -1.90625 6.023438 -1.570312 5.859375 -1.28125 C 5.691406 -0.988281 5.46875 -0.738281 5.1875 -0.53125 C 4.914062 -0.332031 4.609375 -0.179688 4.265625 -0.078125 C 3.929688 0.015625 3.59375 0.0625 3.25 0.0625 C 2.957031 0.0625 2.65625 0.0195312 2.34375 -0.0625 C 2.03125 -0.15625 1.738281 -0.285156 1.46875 -0.453125 C 1.195312 -0.628906 0.972656 -0.847656 0.796875 -1.109375 C 0.617188 -1.367188 0.507812 -1.671875 0.46875 -2.015625 L 0.46875 -2.21875 L 1.578125 -2.25 L 1.59375 -2.078125 L 1.59375 -2.125 C 1.625 -1.882812 1.722656 -1.679688 1.890625 -1.515625 C 2.066406 -1.359375 2.28125 -1.238281 2.53125 -1.15625 C 2.78125 -1.070312 3.019531 -1.03125 3.25 -1.03125 C 3.53125 -1.03125 3.800781 -1.078125 4.0625 -1.171875 C 4.332031 -1.273438 4.550781 -1.421875 4.71875 -1.609375 C 4.894531 -1.796875 4.984375 -2.019531 4.984375 -2.28125 C 4.984375 -2.363281 4.972656 -2.453125 4.953125 -2.546875 C 4.910156 -2.742188 4.800781 -2.890625 4.625 -2.984375 C 4.445312 -3.085938 4.238281 -3.160156 4 -3.203125 C 3.757812 -3.253906 3.507812 -3.289062 3.25 -3.3125 C 2.957031 -3.34375 2.65625 -3.390625 2.34375 -3.453125 C 2.03125 -3.515625 1.742188 -3.613281 1.484375 -3.75 C 1.222656 -3.882812 1.003906 -4.078125 0.828125 -4.328125 C 0.660156 -4.578125 0.5625 -4.898438 0.53125 -5.296875 C 0.53125 -5.328125 0.523438 -5.359375 0.515625 -5.390625 C 0.515625 -5.421875 0.515625 -5.453125 0.515625 -5.484375 C 0.515625 -5.953125 0.660156 -6.375 0.953125 -6.75 C 1.203125 -7.09375 1.539062 -7.347656 1.96875 -7.515625 C 2.394531 -7.691406 2.832031 -7.78125 3.28125 -7.78125 C 3.675781 -7.78125 4.0625 -7.707031 4.4375 -7.5625 C 4.8125 -7.414062 5.128906 -7.191406 5.390625 -6.890625 C 5.660156 -6.597656 5.828125 -6.21875 5.890625 -5.75 Z M 4.796875 -5.703125 "/></g></g></g><g fill="#c0c0c0" fill-opacity="1"><g transform="translate(160.501832, 191.27555)"><g><path d="M 3.484375 -6.75 L 3.484375 -1.03125 L 4.921875 -1.03125 L 4.921875 0 L 0.953125 0 L 0.953125 -1.03125 L 2.375 -1.03125 L 2.375 -6.75 L 0.953125 -6.75 L 0.953125 -7.765625 L 4.921875 -7.765625 L 4.921875 -6.75 Z M 3.484375 -6.75 "/></g></g></g><g fill="#c0c0c0" fill-opacity="1"><g transform="translate(175.149707, 191.27555)"><g><path d="M 0.390625 -3.84375 C 0.390625 -4.40625 0.488281 -4.925781 0.6875 -5.40625 C 0.894531 -5.894531 1.179688 -6.320312 1.546875 -6.6875 C 1.910156 -7.050781 2.332031 -7.335938 2.8125 -7.546875 C 3.300781 -7.753906 3.820312 -7.859375 4.375 -7.859375 C 4.9375 -7.859375 5.457031 -7.753906 5.9375 -7.546875 C 6.425781 -7.335938 6.851562 -7.050781 7.21875 -6.6875 C 7.582031 -6.320312 7.863281 -5.894531 8.0625 -5.40625 C 8.269531 -4.925781 8.375 -4.40625 8.375 -3.84375 C 8.375 -3.289062 8.269531 -2.773438 8.0625 -2.296875 C 7.863281 -1.816406 7.582031 -1.390625 7.21875 -1.015625 C 6.851562 -0.648438 6.425781 -0.363281 5.9375 -0.15625 C 5.457031 0.0390625 4.9375 0.140625 4.375 0.140625 C 3.820312 0.140625 3.300781 0.0390625 2.8125 -0.15625 C 2.332031 -0.363281 1.910156 -0.648438 1.546875 -1.015625 C 1.179688 -1.390625 0.894531 -1.816406 0.6875 -2.296875 C 0.488281 -2.773438 0.390625 -3.289062 0.390625 -3.84375 Z M 1.53125 -3.84375 C 1.53125 -3.320312 1.65625 -2.84375 1.90625 -2.40625 C 2.164062 -1.976562 2.507812 -1.632812 2.9375 -1.375 C 3.375 -1.125 3.851562 -1 4.375 -1 C 4.90625 -1 5.382812 -1.125 5.8125 -1.375 C 6.25 -1.632812 6.59375 -1.976562 6.84375 -2.40625 C 7.101562 -2.84375 7.234375 -3.320312 7.234375 -3.84375 C 7.234375 -4.375 7.101562 -4.851562 6.84375 -5.28125 C 6.59375 -5.71875 6.25 -6.0625 5.8125 -6.3125 C 5.382812 -6.570312 4.90625 -6.703125 4.375 -6.703125 C 3.851562 -6.703125 3.375 -6.570312 2.9375 -6.3125 C 2.507812 -6.0625 2.164062 -5.71875 1.90625 -5.28125 C 1.65625 -4.851562 1.53125 -4.375 1.53125 -3.84375 Z M 1.53125 -3.84375 "/></g></g></g><g fill="#c0c0c0" fill-opacity="1"><g transform="translate(192.787478, 191.27555)"><g><path d="M 0.953125 -7.703125 L 1.796875 -7.703125 L 5.5625 -2.28125 L 5.5625 -7.703125 L 6.65625 -7.703125 L 6.65625 0 L 5.78125 0 L 2.0625 -5.375 L 2.0625 0 L 0.953125 0 Z M 0.953125 -7.703125 "/></g></g></g><g fill="#c0c0c0" fill-opacity="1"><g transform="translate(209.183118, 191.27555)"><g/></g></g><g fill="#c0c0c0" fill-opacity="1"><g transform="translate(220.720192, 191.27555)"><g><path d="M 3.765625 -7.703125 C 4.316406 -7.703125 4.773438 -7.578125 5.140625 -7.328125 C 5.515625 -7.078125 5.796875 -6.753906 5.984375 -6.359375 C 6.171875 -5.972656 6.265625 -5.5625 6.265625 -5.125 C 6.265625 -4.695312 6.171875 -4.285156 5.984375 -3.890625 C 5.796875 -3.503906 5.515625 -3.1875 5.140625 -2.9375 C 4.773438 -2.6875 4.316406 -2.5625 3.765625 -2.5625 L 2.0625 -2.5625 L 2.0625 0 L 0.953125 0 L 0.953125 -7.703125 Z M 3.765625 -3.65625 C 4.078125 -3.65625 4.332031 -3.726562 4.53125 -3.875 C 4.738281 -4.019531 4.894531 -4.203125 5 -4.421875 C 5.101562 -4.640625 5.15625 -4.867188 5.15625 -5.109375 C 5.15625 -5.359375 5.101562 -5.59375 5 -5.8125 C 4.894531 -6.039062 4.738281 -6.222656 4.53125 -6.359375 C 4.332031 -6.503906 4.078125 -6.578125 3.765625 -6.578125 L 2.0625 -6.578125 L 2.0625 -3.65625 Z M 3.765625 -3.65625 "/></g></g></g><g fill="#c0c0c0" fill-opacity="1"><g transform="translate(236.049587, 191.27555)"><g><path d="M 3.75 -3.90625 C 4.0625 -3.90625 4.320312 -3.96875 4.53125 -4.09375 C 4.738281 -4.226562 4.890625 -4.398438 4.984375 -4.609375 C 5.085938 -4.816406 5.140625 -5.03125 5.140625 -5.25 C 5.140625 -5.46875 5.085938 -5.6875 4.984375 -5.90625 C 4.890625 -6.125 4.738281 -6.304688 4.53125 -6.453125 C 4.320312 -6.597656 4.0625 -6.671875 3.75 -6.671875 L 2.046875 -6.671875 L 2.046875 0 L 0.953125 0 L 0.953125 -7.796875 L 3.75 -7.796875 C 4.164062 -7.796875 4.53125 -7.71875 4.84375 -7.5625 C 5.164062 -7.414062 5.429688 -7.21875 5.640625 -6.96875 C 5.847656 -6.726562 6.003906 -6.457031 6.109375 -6.15625 C 6.210938 -5.851562 6.265625 -5.550781 6.265625 -5.25 C 6.265625 -4.882812 6.1875 -4.535156 6.03125 -4.203125 C 5.882812 -3.867188 5.660156 -3.585938 5.359375 -3.359375 C 5.066406 -3.128906 4.703125 -2.972656 4.265625 -2.890625 L 6.703125 0 L 5.265625 0 L 2.453125 -3.375 L 2.453125 -3.90625 Z M 3.75 -3.90625 "/></g></g></g><g fill="#c0c0c0" fill-opacity="1"><g transform="translate(251.400965, 191.27555)"><g><path d="M 0.390625 -3.84375 C 0.390625 -4.40625 0.488281 -4.925781 0.6875 -5.40625 C 0.894531 -5.894531 1.179688 -6.320312 1.546875 -6.6875 C 1.910156 -7.050781 2.332031 -7.335938 2.8125 -7.546875 C 3.300781 -7.753906 3.820312 -7.859375 4.375 -7.859375 C 4.9375 -7.859375 5.457031 -7.753906 5.9375 -7.546875 C 6.425781 -7.335938 6.851562 -7.050781 7.21875 -6.6875 C 7.582031 -6.320312 7.863281 -5.894531 8.0625 -5.40625 C 8.269531 -4.925781 8.375 -4.40625 8.375 -3.84375 C 8.375 -3.289062 8.269531 -2.773438 8.0625 -2.296875 C 7.863281 -1.816406 7.582031 -1.390625 7.21875 -1.015625 C 6.851562 -0.648438 6.425781 -0.363281 5.9375 -0.15625 C 5.457031 0.0390625 4.9375 0.140625 4.375 0.140625 C 3.820312 0.140625 3.300781 0.0390625 2.8125 -0.15625 C 2.332031 -0.363281 1.910156 -0.648438 1.546875 -1.015625 C 1.179688 -1.390625 0.894531 -1.816406 0.6875 -2.296875 C 0.488281 -2.773438 0.390625 -3.289062 0.390625 -3.84375 Z M 1.53125 -3.84375 C 1.53125 -3.320312 1.65625 -2.84375 1.90625 -2.40625 C 2.164062 -1.976562 2.507812 -1.632812 2.9375 -1.375 C 3.375 -1.125 3.851562 -1 4.375 -1 C 4.90625 -1 5.382812 -1.125 5.8125 -1.375 C 6.25 -1.632812 6.59375 -1.976562 6.84375 -2.40625 C 7.101562 -2.84375 7.234375 -3.320312 7.234375 -3.84375 C 7.234375 -4.375 7.101562 -4.851562 6.84375 -5.28125 C 6.59375 -5.71875 6.25 -6.0625 5.8125 -6.3125 C 5.382812 -6.570312 4.90625 -6.703125 4.375 -6.703125 C 3.851562 -6.703125 3.375 -6.570312 2.9375 -6.3125 C 2.507812 -6.0625 2.164062 -5.71875 1.90625 -5.28125 C 1.65625 -4.851562 1.53125 -4.375 1.53125 -3.84375 Z M 1.53125 -3.84375 "/></g></g></g></svg>
